<?xml version="1.0" standalone="no"?>
<!DOCTYPE svg PUBLIC "-//W3C//DTD SVG 20010904//EN"
 "http://www.w3.org/TR/2001/REC-SVG-20010904/DTD/svg10.dtd">
<svg version="1.0" xmlns="http://www.w3.org/2000/svg"
 width="905.000000pt" height="156.000000pt" viewBox="0 0 905.000000 156.000000"
 preserveAspectRatio="xMidYMid meet">

<g transform="translate(0.000000,156.000000) scale(0.100000,-0.100000)"
fill="#000000" stroke="none">
<path d="M678 983 c-3 -515 -4 -540 -23 -577 -25 -50 -61 -76 -113 -83 -58 -8
-107 4 -142 34 -43 36 -60 73 -67 148 -3 36 -9 65 -12 65 -3 0 -62 -7 -131
-15 -69 -8 -127 -15 -130 -15 -12 0 9 -159 28 -212 71 -202 286 -298 543 -244
163 35 273 141 317 306 12 44 16 159 19 593 l4 537 -145 0 -145 0 -3 -537z"/>
<path d="M1280 805 l0 -715 505 0 505 0 0 120 0 120 -360 0 -360 0 0 595 0
595 -145 0 -145 0 0 -715z"/>
<path d="M6610 1264 l0 -256 -37 34 c-109 97 -237 129 -377 93 -148 -39 -257
-156 -303 -328 -24 -87 -23 -299 1 -387 27 -98 72 -174 142 -239 85 -80 149
-105 270 -106 84 0 95 2 166 38 51 25 90 53 117 84 l41 46 0 -77 0 -76 125 0
125 0 0 715 0 715 -135 0 -135 0 0 -256z m-144 -343 c53 -24 108 -90 125 -149
9 -29 14 -95 14 -172 0 -109 -3 -132 -23 -175 -29 -63 -66 -102 -117 -126
-114 -53 -246 11 -290 140 -36 107 -29 296 15 381 53 103 174 147 276 101z"/>
<path d="M2759 1132 c-159 -42 -279 -171 -325 -352 -22 -87 -23 -264 -1 -348
50 -191 169 -310 346 -348 133 -28 284 -11 383 43 26 14 70 50 98 79 48 51
110 157 98 169 -3 4 -50 13 -104 20 -55 8 -113 17 -131 20 -26 5 -33 2 -38
-17 -40 -130 -214 -159 -319 -54 -40 40 -51 64 -71 159 l-5 27 346 0 347 0 -6
98 c-18 281 -141 455 -358 507 -83 19 -178 18 -260 -3z m226 -211 c53 -24 91
-70 110 -133 28 -95 43 -88 -190 -88 l-205 0 0 28 c0 76 59 169 125 198 43 19
113 17 160 -5z"/>
<path d="M3852 1135 c-88 -19 -143 -48 -192 -101 -39 -43 -108 -169 -98 -180
11 -10 243 -43 246 -34 8 23 50 75 75 94 23 17 43 21 110 21 131 0 177 -33
177 -125 0 -49 -4 -51 -170 -87 -281 -60 -364 -96 -419 -179 -53 -81 -64 -199
-27 -289 19 -45 92 -122 136 -144 134 -68 324 -47 452 50 l53 39 18 -55 19
-55 135 0 c125 0 135 1 128 18 -48 109 -48 112 -54 477 -6 340 -7 351 -29 397
-56 114 -190 169 -407 167 -49 0 -119 -7 -153 -14z m296 -768 c-49 -89 -183
-133 -265 -87 -97 54 -103 179 -11 226 17 9 90 31 162 48 l131 32 3 -89 c2
-77 0 -94 -20 -130z"/>
<path d="M5200 1136 c-69 -20 -128 -54 -181 -103 l-49 -46 0 72 0 71 -130 0
-130 0 0 -520 0 -520 140 0 139 0 3 343 3 343 26 49 c37 73 101 110 188 110
78 0 117 -22 147 -82 17 -35 19 -70 22 -400 l3 -363 135 0 135 0 -3 418 -3
417 -28 57 c-50 102 -149 157 -292 164 -48 2 -98 -2 -125 -10z"/>
<path d="M7556 1135 c-43 -15 -84 -51 -127 -109 l-29 -39 0 71 0 72 -130 0
-130 0 0 -520 0 -520 140 0 140 0 0 278 c0 152 4 304 10 336 12 74 46 143 83
170 37 27 127 29 176 3 19 -9 38 -14 41 -10 4 5 24 57 45 117 44 125 45 123
-49 151 -61 18 -119 18 -170 0z"/>
<path d="M8270 1134 c-256 -55 -418 -288 -396 -569 18 -239 130 -391 338 -461
421 -143 804 197 713 631 -63 296 -343 467 -655 399z m238 -230 c105 -52 147
-138 146 -299 0 -91 -3 -107 -31 -167 -61 -131 -193 -183 -318 -124 -57 26
-98 70 -129 136 -30 65 -30 255 0 320 65 141 205 197 332 134z"/>
</g>
</svg>
